<?xml version="1.0" encoding="UTF-8" standalone="no"?>
<!-- Created with Inkscape (http://www.inkscape.org/) -->

<svg
   xmlns:dc="http://purl.org/dc/elements/1.1/"
   xmlns:cc="http://creativecommons.org/ns#"
   xmlns:rdf="http://www.w3.org/1999/02/22-rdf-syntax-ns#"
   xmlns:svg="http://www.w3.org/2000/svg"
   xmlns="http://www.w3.org/2000/svg"
   xmlns:sodipodi="http://sodipodi.sourceforge.net/DTD/sodipodi-0.dtd"
   xmlns:inkscape="http://www.inkscape.org/namespaces/inkscape"
   id="svg8"
   version="1.1"
   viewBox="0 0 30.542164 30.542164"
   height="30.542164mm"
   width="30.542164mm"
   inkscape:version="0.92.3 (2405546, 2018-03-11)"
   sodipodi:docname="logo.svg">
  <sodipodi:namedview
     inkscape:window-maximized="1"
     inkscape:window-y="0"
     inkscape:window-x="0"
     inkscape:window-height="708"
     inkscape:window-width="1366"
     showgrid="false"
     inkscape:current-layer="g1976"
     inkscape:document-units="mm"
     inkscape:cy="63.228191"
     inkscape:cx="68.541201"
     inkscape:zoom="1.979899"
     inkscape:pageshadow="2"
     inkscape:pageopacity="0.0"
     borderopacity="1.0"
     bordercolor="#666666"
     pagecolor="#ffffff"
     id="base"
     fit-margin-top="0"
     fit-margin-left="0"
     fit-margin-right="0"
     fit-margin-bottom="0" />
  <defs
     id="defs2" />
  <metadata
     id="metadata5">
    <rdf:RDF>
      <cc:Work
         rdf:about="">
        <dc:format>image/svg+xml</dc:format>
        <dc:type
           rdf:resource="http://purl.org/dc/dcmitype/StillImage" />
        <dc:title></dc:title>
      </cc:Work>
    </rdf:RDF>
  </metadata>
  <g
     inkscape:label="Layer 1"
     inkscape:groupmode="layer"
     id="layer1"
     transform="translate(-77.558196,-137.81503)">
    <g
       id="g1762"
       inkscape:label="Gear16"
       transform="translate(92.829278,153.08611)"
       style="fill:#008888;fill-opacity:1">
      <path
         id="path1758"
         style="fill:#008888;fill-opacity:1;fill-rule:evenodd;stroke:#000000;stroke-width:0.26458332"
         d="m 11.73186,-1.17674 1.47229,-0.14768 0.20608,0.00363 1.72856,0.52848 v 1.58462 l -1.72856,0.52848 -0.20608,0.00363 -1.47229,-0.14768 -0.44271,2.22568 1.41672,0.42699 0.18901,0.08221 1.39474,1.14974 -0.60641,1.46401 -1.79922,-0.17324 -0.19178,-0.07552 -1.3037,-0.69985 -1.26075,1.88684 1.14549,0.93664 0.14316,0.14828 0.84858,1.59597 -1.1205,1.1205 L 8.54852,10.41641 8.40024,10.27325 7.4636,9.12776 l -1.88684,1.26075 0.69985,1.3037 0.07552,0.19178 0.17324,1.79922 -1.46401,0.60641 -1.14974,-1.39474 -0.08221,-0.18901 -0.42699,-1.41672 -2.22568,0.44271 0.14768,1.47229 -0.00363,0.20608 -0.52848,1.72856 h -1.58462 l -0.52848,-1.72856 -0.00363,-0.20608 0.14768,-1.47229 -2.22568,-0.44271 -0.42699,1.41672 -0.08221,0.18901 -1.14974,1.39474 -1.46401,-0.60641 0.17324,-1.79922 0.07552,-0.19178 0.69985,-1.3037 -1.88684,-1.26075 -0.93664,1.14549 -0.14828,0.14316 -1.59597,0.84858 -1.1205,-1.1205 0.84858,-1.59597 0.14316,-0.14828 1.14549,-0.93664 -1.26075,-1.88684 -1.3037,0.69985 -0.19178,0.07552 -1.79922,0.17324 -0.60641,-1.46401 1.39474,-1.14974 0.18901,-0.08221 1.41672,-0.42699 -0.44271,-2.22568 -1.47229,0.14768 -0.20608,-0.00363 -1.72856,-0.52848 v -1.58462 l 1.72856,-0.52848 0.20608,-0.00363 1.47229,0.14768 0.44271,-2.22568 -1.41672,-0.42699 -0.18901,-0.08221 -1.39474,-1.14974 0.60641,-1.46401 1.79922,0.17324 0.19178,0.07552 1.3037,0.69985 1.26075,-1.88684 -1.14549,-0.93664 -0.14316,-0.14828 -0.84858,-1.59597 1.1205,-1.1205 1.59597,0.84858 0.14828,0.14316 0.93664,1.14549 1.88684,-1.26075 -0.69985,-1.3037 -0.07552,-0.19178 -0.17324,-1.79922 1.46401,-0.60641 1.14974,1.39474 0.08221,0.18901 0.42699,1.41672 2.22568,-0.44271 -0.14768,-1.47229 0.00363,-0.20608 0.52848,-1.72856 h 1.58462 l 0.52848,1.72856 0.00363,0.20608 -0.14768,1.47229 2.22568,0.44271 0.42699,-1.41672 0.08221,-0.18901 1.14974,-1.39474 1.46401,0.60641 -0.17324,1.79922 -0.07552,0.19178 -0.69985,1.3037 1.88684,1.26075 0.93664,-1.14549 0.14828,-0.14316 1.59597,-0.84858 1.1205,1.1205 -0.84858,1.59597 -0.14316,0.14828 -1.14549,0.93664 1.26075,1.88684 1.3037,-0.69985 0.19178,-0.07552 1.79922,-0.17324 0.60641,1.46401 -1.39474,1.14974 -0.18901,0.08221 -1.41672,0.42699 z"
         inkscape:connector-curvature="0" />
      <circle
         id="path1760"
         style="fill:#eeeeee;fill-opacity:1;fill-rule:nonzero;stroke:#000000;stroke-width:0.26458332"
         cx="0"
         cy="0"
         r="7.9375" />
    </g>
  </g>
  <g
     inkscape:label="text copy"
     id="g1976"
     inkscape:groupmode="layer"
     transform="translate(-77.558196,-137.81503)">
    <g
       id="g1968"
       style="font-style:normal;font-variant:normal;font-weight:normal;font-stretch:normal;font-size:9.10254955px;line-height:150%;font-family:serif;-inkscape-font-specification:'serif, Normal';font-variant-ligatures:normal;font-variant-caps:normal;font-variant-numeric:normal;font-feature-settings:normal;text-align:start;letter-spacing:0px;word-spacing:0px;writing-mode:lr-tb;text-anchor:start;fill:#000000;fill-opacity:1;stroke:none;stroke-width:0.42668197px;stroke-linecap:butt;stroke-linejoin:miter;stroke-opacity:1"
       aria-label="AVR AVG">
      <path
         inkscape:connector-curvature="0"
         id="path1956"
         style="font-style:normal;font-variant:normal;font-weight:bold;font-stretch:normal;font-size:9.10254955px;font-family:FreeMono;-inkscape-font-specification:'FreeMono, Bold';font-variant-ligatures:normal;font-variant-caps:normal;font-variant-numeric:normal;font-feature-settings:normal;text-align:start;writing-mode:lr-tb;text-anchor:start;fill:#eeaa2f;fill-opacity:0.94117647;stroke:#090902;stroke-width:1;stroke-linecap:round;stroke-linejoin:bevel;stroke-miterlimit:3;stroke-dasharray:none;stroke-opacity:1;paint-order:stroke fill markers"
         d="m 88.232918,151.48155 q 0,-0.26397 0.154743,-0.355 0.154743,-0.10013 0.446025,-0.10013 h 0.209358 l -0.209358,-0.52794 h -2.166407 l -0.209359,0.52794 h 0.209359 q 0.600768,0 0.600768,0.45513 0,0.45513 -0.600768,0.45513 H 85.45664 q -0.600768,0 -0.600768,-0.45513 0,-0.27307 0.163846,-0.3641 0.154743,-0.091 0.446024,-0.091 l 1.410896,-3.48627 h -0.573461 q -0.609871,0 -0.609871,-0.45513 0,-0.27308 0.154744,-0.3641 0.163845,-0.091 0.455127,-0.091 h 1.966151 l 1.811407,4.39653 q 0.618973,0 0.618973,0.45513 0,0.45513 -0.600768,0.45513 h -1.265254 q -0.600768,0 -0.600768,-0.45513 z m 0.227563,-1.89333 -0.709999,-1.74769 -0.719101,1.74769 z" />
      <path
         sodipodi:nodetypes="cscccscscsssccccscssccc"
         inkscape:connector-curvature="0"
         id="path1958"
         style="font-style:normal;font-variant:normal;font-weight:bold;font-stretch:normal;font-size:9.10254955px;font-family:FreeMono;-inkscape-font-specification:'FreeMono, Bold';font-variant-ligatures:normal;font-variant-caps:normal;font-variant-numeric:normal;font-feature-settings:normal;text-align:start;writing-mode:lr-tb;text-anchor:start;fill:#eeaa2f;fill-opacity:0.94117647;stroke:#090902;stroke-width:1;stroke-linecap:round;stroke-linejoin:bevel;stroke-miterlimit:3;stroke-dasharray:none;stroke-opacity:1;paint-order:stroke fill markers"
         d="m 92.196854,147.08502 c 0,0.30342 -0.200256,0.45513 -0.600768,0.45513 h -0.172948 l 1.310767,3.08576 1.310767,-3.08576 h -0.218461 c -0.194188,0 -0.342863,-0.0303 -0.446025,-0.091 -0.103163,-0.0668 -0.154744,-0.18812 -0.154744,-0.3641 0,-0.17598 0.05158,-0.29431 0.154744,-0.355 0.103162,-0.0668 0.251837,-0.10013 0.446025,-0.10013 h 1.201536 c 0.400512,0 0.600768,0.15171 0.600768,0.45513 0,0.30342 -0.206324,0.45513 -0.618973,0.45513 l -1.866023,4.39653 h -0.901152 l -1.838715,-4.39653 c -0.412649,0 -0.618973,-0.15171 -0.618973,-0.45513 0,-0.17598 0.05158,-0.29431 0.154743,-0.355 0.103162,-0.0668 0.251837,-0.10013 0.446025,-0.10013 h 1.210639 c 0.194188,0 0.342863,0.0334 0.446025,0.10013 0.103162,0.0607 0.154743,0.179 0.154743,0.355 z" />
      <path
         inkscape:connector-curvature="0"
         id="path1960"
         style="font-style:normal;font-variant:normal;font-weight:bold;font-stretch:normal;font-size:9.10254955px;font-family:FreeMono;-inkscape-font-specification:'FreeMono, Bold';font-variant-ligatures:normal;font-variant-caps:normal;font-variant-numeric:normal;font-feature-settings:normal;text-align:start;writing-mode:lr-tb;text-anchor:start;fill:#eeaa2f;fill-opacity:0.94117647;stroke:#090902;stroke-width:1;stroke-linecap:round;stroke-linejoin:bevel;stroke-miterlimit:3;stroke-dasharray:none;stroke-opacity:1;paint-order:stroke fill markers"
         d="m 100.90566,151.02642 q 0.60076,0 0.60076,0.45513 0,0.45513 -0.60076,0.45513 h -0.7191 q -0.336799,-0.65538 -0.864746,-1.28346 -0.518845,-0.63718 -0.810127,-0.73731 h -0.873845 v 1.11051 h 0.318589 q 0.600769,0 0.600769,0.45513 0,0.45513 -0.600769,0.45513 h -1.365382 q -0.600768,0 -0.600768,-0.45513 0,-0.45513 0.600768,-0.45513 h 0.136538 v -3.48627 h -0.136538 q -0.600768,0 -0.600768,-0.45513 0,-0.26397 0.154743,-0.355 0.154743,-0.10013 0.446025,-0.10013 h 2.029869 q 0.882947,0 1.438202,0.45513 0.56436,0.44603 0.56436,1.16513 0,0.83743 -0.983077,1.37448 0.591667,0.51885 1.146917,1.40179 z m -3.267818,-2.02076 h 0.691794 q 0.573461,0 0.946665,-0.21846 0.382307,-0.22757 0.382307,-0.56436 0,-0.29128 -0.282179,-0.48244 -0.282179,-0.20025 -0.719101,-0.20025 h -1.019486 z" />
      <path
         inkscape:connector-curvature="0"
         id="path1962"
         style="font-style:normal;font-variant:normal;font-weight:bold;font-stretch:normal;font-size:9.10254955px;font-family:FreeMono;-inkscape-font-specification:'FreeMono, Bold';font-variant-ligatures:normal;font-variant-caps:normal;font-variant-numeric:normal;font-feature-settings:normal;text-align:start;writing-mode:lr-tb;text-anchor:start;fill:#eeaa2f;fill-opacity:0.94117647;stroke:#090902;stroke-width:1;stroke-linecap:round;stroke-linejoin:bevel;stroke-miterlimit:3;stroke-dasharray:none;stroke-opacity:1;paint-order:stroke fill markers"
         d="m 88.927449,158.72166 q 0,-0.26397 0.154743,-0.355 0.154743,-0.10013 0.446025,-0.10013 h 0.209358 l -0.209358,-0.52794 H 87.36181 l -0.209359,0.52794 h 0.209359 q 0.600768,0 0.600768,0.45513 0,0.45513 -0.600768,0.45513 h -1.210639 q -0.600768,0 -0.600768,-0.45513 0,-0.27308 0.163846,-0.3641 0.154743,-0.091 0.446024,-0.091 l 1.410896,-3.48627 h -0.573461 q -0.609871,0 -0.609871,-0.45513 0,-0.27308 0.154744,-0.3641 0.163845,-0.091 0.455127,-0.091 h 1.966151 l 1.811407,4.39653 q 0.618973,0 0.618973,0.45513 0,0.45513 -0.600768,0.45513 h -1.265254 q -0.600768,0 -0.600768,-0.45513 z m 0.227563,-1.89333 -0.709999,-1.74769 -0.719101,1.74769 z" />
      <path
         inkscape:connector-curvature="0"
         id="path1964"
         style="font-style:normal;font-variant:normal;font-weight:bold;font-stretch:normal;font-size:9.10254955px;font-family:FreeMono;-inkscape-font-specification:'FreeMono, Bold';font-variant-ligatures:normal;font-variant-caps:normal;font-variant-numeric:normal;font-feature-settings:normal;text-align:start;writing-mode:lr-tb;text-anchor:start;fill:#eeaa2f;fill-opacity:0.94117647;stroke:#090902;stroke-width:1;stroke-linecap:round;stroke-linejoin:bevel;stroke-miterlimit:3;stroke-dasharray:none;stroke-opacity:1;paint-order:stroke fill markers"
         d="m 92.362218,154.32513 q 0,0.45513 -0.600768,0.45513 h -0.172948 l 1.310767,3.08576 1.310767,-3.08576 h -0.218461 q -0.291282,0 -0.446025,-0.091 -0.154744,-0.10013 -0.154744,-0.3641 0,-0.26397 0.154744,-0.355 0.154743,-0.10013 0.446025,-0.10013 h 1.201536 q 0.600768,0 0.600768,0.45513 0,0.45513 -0.618973,0.45513 l -1.866023,4.39653 h -0.901152 l -1.838715,-4.39653 q -0.618973,0 -0.618973,-0.45513 0,-0.26397 0.154743,-0.355 0.154743,-0.10013 0.446025,-0.10013 h 1.210639 q 0.291282,0 0.446025,0.10013 0.154743,0.091 0.154743,0.355 z" />
      <path
         inkscape:connector-curvature="0"
         id="path1966"
         style="font-style:normal;font-variant:normal;font-weight:bold;font-stretch:normal;font-size:9.10254955px;font-family:FreeMono;-inkscape-font-specification:'FreeMono, Bold';font-variant-ligatures:normal;font-variant-caps:normal;font-variant-numeric:normal;font-feature-settings:normal;text-align:start;writing-mode:lr-tb;text-anchor:start;fill:#eeaa2f;fill-opacity:0.94117647;stroke:#090902;stroke-width:1;stroke-linecap:round;stroke-linejoin:bevel;stroke-miterlimit:3;stroke-dasharray:none;stroke-opacity:1;paint-order:stroke fill markers"
         d="m 100.37801,156.62808 q 0.60987,0 0.60987,0.45512 0,0.3459 -0.38231,0.45513 v 1.20154 q -0.609867,0.31859 -1.037687,0.43692 -0.427821,0.12743 -0.955769,0.12743 -0.618973,0 -1.110511,-0.14564 -0.491538,-0.15474 -0.782819,-0.39141 -0.291282,-0.23666 -0.482435,-0.55525 -0.191154,-0.32769 -0.263974,-0.63718 -0.07282,-0.30949 -0.07282,-0.63718 v -0.64628 q 0,-1.065 0.719102,-1.8023 0.728204,-0.74641 1.866022,-0.74641 0.737307,0 1.319874,0.29128 0.14564,-0.29128 0.373197,-0.29128 0.24577,0 0.3368,0.15474 0.091,0.14564 0.091,0.44603 v 0.70999 q 0,0.29129 -0.10012,0.44603 -0.091,0.15474 -0.355,0.15474 -0.0637,0 -0.12744,-0.009 -0.0546,-0.0182 -0.091,-0.0364 -0.0364,-0.0273 -0.0728,-0.0637 -0.0273,-0.0364 -0.0546,-0.0637 -0.0182,-0.0364 -0.0364,-0.0819 -0.0182,-0.0546 -0.0273,-0.0819 -0.009,-0.0273 -0.0273,-0.0728 -0.009,-0.0546 -0.009,-0.0728 -0.0728,-0.23667 -0.391414,-0.37321 -0.318587,-0.14564 -0.819227,-0.14564 -0.764614,0 -1.228844,0.45513 -0.455128,0.44602 -0.455128,1.18333 v 0.58256 q 0,1.52013 1.74769,1.52013 0.628076,0 1.137823,-0.22756 v -0.62831 h -0.91026 q -0.600768,0 -0.600768,-0.45513 0,-0.26397 0.154744,-0.355 0.154743,-0.10012 0.446024,-0.10012 z" />
    </g>
  </g>
  <g
     inkscape:groupmode="layer"
     id="layer2"
     inkscape:label="text"
     transform="translate(-77.558196,-137.81503)">
    <g
       aria-label="AVR AVG"
       style="font-style:normal;font-variant:normal;font-weight:normal;font-stretch:normal;font-size:9.10254955px;line-height:150%;font-family:serif;-inkscape-font-specification:'serif, Normal';font-variant-ligatures:normal;font-variant-caps:normal;font-variant-numeric:normal;font-feature-settings:normal;text-align:start;letter-spacing:0px;word-spacing:0px;writing-mode:lr-tb;text-anchor:start;fill:#000000;fill-opacity:1;stroke:none;stroke-width:0.42668197px;stroke-linecap:butt;stroke-linejoin:miter;stroke-opacity:1"
       id="text1810">
      <path
         d="m 88.232918,151.48155 q 0,-0.26397 0.154743,-0.355 0.154743,-0.10013 0.446025,-0.10013 h 0.209358 l -0.209358,-0.52794 h -2.166407 l -0.209359,0.52794 h 0.209359 q 0.600768,0 0.600768,0.45513 0,0.45513 -0.600768,0.45513 H 85.45664 q -0.600768,0 -0.600768,-0.45513 0,-0.27307 0.163846,-0.3641 0.154743,-0.091 0.446024,-0.091 l 1.410896,-3.48627 h -0.573461 q -0.609871,0 -0.609871,-0.45513 0,-0.27308 0.154744,-0.3641 0.163845,-0.091 0.455127,-0.091 h 1.966151 l 1.811407,4.39653 q 0.618973,0 0.618973,0.45513 0,0.45513 -0.600768,0.45513 h -1.265254 q -0.600768,0 -0.600768,-0.45513 z m 0.227563,-1.89333 -0.709999,-1.74769 -0.719101,1.74769 z"
         style="font-style:normal;font-variant:normal;font-weight:bold;font-stretch:normal;font-size:9.10254955px;font-family:FreeMono;-inkscape-font-specification:'FreeMono, Bold';font-variant-ligatures:normal;font-variant-caps:normal;font-variant-numeric:normal;font-feature-settings:normal;text-align:start;writing-mode:lr-tb;text-anchor:start;fill:#eeaa2f;fill-opacity:0.94117647;stroke:#dddd33;stroke-width:0.42699999;stroke-linecap:round;stroke-linejoin:bevel;stroke-miterlimit:3;stroke-dasharray:none;stroke-opacity:1;paint-order:stroke fill markers"
         id="path1847"
         inkscape:connector-curvature="0" />
      <path
         d="m 92.196854,147.08502 c 0,0.30342 -0.200256,0.45513 -0.600768,0.45513 h -0.172948 l 1.310767,3.08576 1.310767,-3.08576 h -0.218461 c -0.194188,0 -0.342863,-0.0303 -0.446025,-0.091 -0.103163,-0.0668 -0.154744,-0.18812 -0.154744,-0.3641 0,-0.17598 0.05158,-0.29431 0.154744,-0.355 0.103162,-0.0668 0.251837,-0.10013 0.446025,-0.10013 h 1.201536 c 0.400512,0 0.600768,0.15171 0.600768,0.45513 0,0.30342 -0.206324,0.45513 -0.618973,0.45513 l -1.866023,4.39653 h -0.901152 l -1.838715,-4.39653 c -0.412649,0 -0.618973,-0.15171 -0.618973,-0.45513 0,-0.17598 0.05158,-0.29431 0.154743,-0.355 0.103162,-0.0668 0.251837,-0.10013 0.446025,-0.10013 h 1.210639 c 0.194188,0 0.342863,0.0334 0.446025,0.10013 0.103162,0.0607 0.154743,0.179 0.154743,0.355 z"
         style="font-style:normal;font-variant:normal;font-weight:bold;font-stretch:normal;font-size:9.10254955px;font-family:FreeMono;-inkscape-font-specification:'FreeMono, Bold';font-variant-ligatures:normal;font-variant-caps:normal;font-variant-numeric:normal;font-feature-settings:normal;text-align:start;writing-mode:lr-tb;text-anchor:start;fill:#eeaa2f;fill-opacity:0.94117647;stroke:#dddd33;stroke-width:0.42699999;stroke-linecap:round;stroke-linejoin:bevel;stroke-miterlimit:3;stroke-dasharray:none;stroke-opacity:1;paint-order:stroke fill markers"
         id="path1849"
         inkscape:connector-curvature="0"
         sodipodi:nodetypes="cscccscscsssccccscssccc" />
      <path
         d="m 100.90566,151.02642 q 0.60076,0 0.60076,0.45513 0,0.45513 -0.60076,0.45513 h -0.7191 q -0.336799,-0.65538 -0.864746,-1.28346 -0.518845,-0.63718 -0.810127,-0.73731 h -0.873845 v 1.11051 h 0.318589 q 0.600769,0 0.600769,0.45513 0,0.45513 -0.600769,0.45513 h -1.365382 q -0.600768,0 -0.600768,-0.45513 0,-0.45513 0.600768,-0.45513 h 0.136538 v -3.48627 h -0.136538 q -0.600768,0 -0.600768,-0.45513 0,-0.26397 0.154743,-0.355 0.154743,-0.10013 0.446025,-0.10013 h 2.029869 q 0.882947,0 1.438202,0.45513 0.56436,0.44603 0.56436,1.16513 0,0.83743 -0.983077,1.37448 0.591667,0.51885 1.146917,1.40179 z m -3.267818,-2.02076 h 0.691794 q 0.573461,0 0.946665,-0.21846 0.382307,-0.22757 0.382307,-0.56436 0,-0.29128 -0.282179,-0.48244 -0.282179,-0.20025 -0.719101,-0.20025 h -1.019486 z"
         style="font-style:normal;font-variant:normal;font-weight:bold;font-stretch:normal;font-size:9.10254955px;font-family:FreeMono;-inkscape-font-specification:'FreeMono, Bold';font-variant-ligatures:normal;font-variant-caps:normal;font-variant-numeric:normal;font-feature-settings:normal;text-align:start;writing-mode:lr-tb;text-anchor:start;fill:#eeaa2f;fill-opacity:0.94117647;stroke:#dddd33;stroke-width:0.42699999;stroke-linecap:round;stroke-linejoin:bevel;stroke-miterlimit:3;stroke-dasharray:none;stroke-opacity:1;paint-order:stroke fill markers"
         id="path1851"
         inkscape:connector-curvature="0" />
      <path
         d="m 88.927449,158.72166 q 0,-0.26397 0.154743,-0.355 0.154743,-0.10013 0.446025,-0.10013 h 0.209358 l -0.209358,-0.52794 H 87.36181 l -0.209359,0.52794 h 0.209359 q 0.600768,0 0.600768,0.45513 0,0.45513 -0.600768,0.45513 h -1.210639 q -0.600768,0 -0.600768,-0.45513 0,-0.27308 0.163846,-0.3641 0.154743,-0.091 0.446024,-0.091 l 1.410896,-3.48627 h -0.573461 q -0.609871,0 -0.609871,-0.45513 0,-0.27308 0.154744,-0.3641 0.163845,-0.091 0.455127,-0.091 h 1.966151 l 1.811407,4.39653 q 0.618973,0 0.618973,0.45513 0,0.45513 -0.600768,0.45513 h -1.265254 q -0.600768,0 -0.600768,-0.45513 z m 0.227563,-1.89333 -0.709999,-1.74769 -0.719101,1.74769 z"
         style="font-style:normal;font-variant:normal;font-weight:bold;font-stretch:normal;font-size:9.10254955px;font-family:FreeMono;-inkscape-font-specification:'FreeMono, Bold';font-variant-ligatures:normal;font-variant-caps:normal;font-variant-numeric:normal;font-feature-settings:normal;text-align:start;writing-mode:lr-tb;text-anchor:start;fill:#eeaa2f;fill-opacity:0.94117647;stroke:#dddd33;stroke-width:0.42699999;stroke-linecap:round;stroke-linejoin:bevel;stroke-miterlimit:3;stroke-dasharray:none;stroke-opacity:1;paint-order:stroke fill markers"
         id="path1853"
         inkscape:connector-curvature="0" />
      <path
         d="m 92.362218,154.32513 q 0,0.45513 -0.600768,0.45513 h -0.172948 l 1.310767,3.08576 1.310767,-3.08576 h -0.218461 q -0.291282,0 -0.446025,-0.091 -0.154744,-0.10013 -0.154744,-0.3641 0,-0.26397 0.154744,-0.355 0.154743,-0.10013 0.446025,-0.10013 h 1.201536 q 0.600768,0 0.600768,0.45513 0,0.45513 -0.618973,0.45513 l -1.866023,4.39653 h -0.901152 l -1.838715,-4.39653 q -0.618973,0 -0.618973,-0.45513 0,-0.26397 0.154743,-0.355 0.154743,-0.10013 0.446025,-0.10013 h 1.210639 q 0.291282,0 0.446025,0.10013 0.154743,0.091 0.154743,0.355 z"
         style="font-style:normal;font-variant:normal;font-weight:bold;font-stretch:normal;font-size:9.10254955px;font-family:FreeMono;-inkscape-font-specification:'FreeMono, Bold';font-variant-ligatures:normal;font-variant-caps:normal;font-variant-numeric:normal;font-feature-settings:normal;text-align:start;writing-mode:lr-tb;text-anchor:start;fill:#eeaa2f;fill-opacity:0.94117647;stroke:#dddd33;stroke-width:0.42699999;stroke-linecap:round;stroke-linejoin:bevel;stroke-miterlimit:3;stroke-dasharray:none;stroke-opacity:1;paint-order:stroke fill markers"
         id="path1855"
         inkscape:connector-curvature="0" />
      <path
         d="m 100.37801,156.62808 q 0.60987,0 0.60987,0.45512 0,0.3459 -0.38231,0.45513 v 1.20154 q -0.609867,0.31859 -1.037687,0.43692 -0.427821,0.12743 -0.955769,0.12743 -0.618973,0 -1.110511,-0.14564 -0.491538,-0.15474 -0.782819,-0.39141 -0.291282,-0.23666 -0.482435,-0.55525 -0.191154,-0.32769 -0.263974,-0.63718 -0.07282,-0.30949 -0.07282,-0.63718 v -0.64628 q 0,-1.065 0.719102,-1.8023 0.728204,-0.74641 1.866022,-0.74641 0.737307,0 1.319874,0.29128 0.14564,-0.29128 0.373197,-0.29128 0.24577,0 0.3368,0.15474 0.091,0.14564 0.091,0.44603 v 0.70999 q 0,0.29129 -0.10012,0.44603 -0.091,0.15474 -0.355,0.15474 -0.0637,0 -0.12744,-0.009 -0.0546,-0.0182 -0.091,-0.0364 -0.0364,-0.0273 -0.0728,-0.0637 -0.0273,-0.0364 -0.0546,-0.0637 -0.0182,-0.0364 -0.0364,-0.0819 -0.0182,-0.0546 -0.0273,-0.0819 -0.009,-0.0273 -0.0273,-0.0728 -0.009,-0.0546 -0.009,-0.0728 -0.0728,-0.23667 -0.391414,-0.37321 -0.318587,-0.14564 -0.819227,-0.14564 -0.764614,0 -1.228844,0.45513 -0.455128,0.44602 -0.455128,1.18333 v 0.58256 q 0,1.52013 1.74769,1.52013 0.628076,0 1.137823,-0.22756 v -0.62831 h -0.91026 q -0.600768,0 -0.600768,-0.45513 0,-0.26397 0.154744,-0.355 0.154743,-0.10012 0.446024,-0.10012 z"
         style="font-style:normal;font-variant:normal;font-weight:bold;font-stretch:normal;font-size:9.10254955px;font-family:FreeMono;-inkscape-font-specification:'FreeMono, Bold';font-variant-ligatures:normal;font-variant-caps:normal;font-variant-numeric:normal;font-feature-settings:normal;text-align:start;writing-mode:lr-tb;text-anchor:start;fill:#eeaa2f;fill-opacity:0.94117647;stroke:#dddd33;stroke-width:0.42699999;stroke-linecap:round;stroke-linejoin:bevel;stroke-miterlimit:3;stroke-dasharray:none;stroke-opacity:1;paint-order:stroke fill markers"
         id="path1857"
         inkscape:connector-curvature="0" />
    </g>
  </g>
</svg>
